<?xml version="1.0" standalone="no"?><!-- Generator: Gravit.io --><svg xmlns="http://www.w3.org/2000/svg" xmlns:xlink="http://www.w3.org/1999/xlink" style="isolation:isolate" viewBox="0 0 300 200" width="300" height="200"><defs><clipPath id="_clipPath_Hik4SGegkqMSS5VTkkrNXSirkdB8QbOg"><rect width="300" height="200"/></clipPath></defs><g clip-path="url(#_clipPath_Hik4SGegkqMSS5VTkkrNXSirkdB8QbOg)"><path d="M 0 0 L 303 0 L 303 0 L 303 200 L 303 200 L 0 200 C 0 200 0 200 0 200 L 0 0 C 0 0 0 0 0 0 Z" style="stroke:none;fill:#FFFFFF;stroke-miterlimit:10;"/><ellipse vector-effect="non-scaling-stroke" cx="223.5000000000001" cy="61" rx="3.5" ry="2.999999999999986" fill="rgb(235,235,235)"/><ellipse vector-effect="non-scaling-stroke" cx="223.5000000000001" cy="154.5" rx="3.5" ry="2.9999999999999716" fill="rgb(235,235,235)"/><ellipse vector-effect="non-scaling-stroke" cx="223.5000000000001" cy="110" rx="3.5" ry="2.999999999999986" fill="rgb(235,235,235)"/><ellipse vector-effect="non-scaling-stroke" cx="250.50000000000003" cy="61" rx="3.5" ry="2.999999999999986" fill="rgb(235,235,235)"/><ellipse vector-effect="non-scaling-stroke" cx="259.5" cy="61" rx="3.5" ry="2.999999999999986" fill="rgb(235,235,235)"/><ellipse vector-effect="non-scaling-stroke" cx="268.5" cy="60.99999999999999" rx="3.5" ry="2.9999999999999787" fill="rgb(235,235,235)"/><ellipse vector-effect="non-scaling-stroke" cx="241.50000000000003" cy="60.99999999999999" rx="3.5" ry="2.9999999999999787" fill="rgb(235,235,235)"/><ellipse vector-effect="non-scaling-stroke" cx="232.50000000000006" cy="61" rx="3.5" ry="2.999999999999986" fill="rgb(235,235,235)"/><rect x="-4" y="-5" width="304" height="34" transform="matrix(1,0,0,1,0,0)" fill="rgb(49,45,45)"/><path d="M 26.796 9 L 105.204 9 C 106.195 9 107 9.805 107 10.796 L 107 15.204 C 107 16.195 106.195 17 105.204 17 L 26.796 17 C 25.805 17 25 16.195 25 15.204 L 25 10.796 C 25 9.805 25.805 9 26.796 9 Z" style="stroke:none;fill:#CEC8C8;stroke-miterlimit:10;"/><path d="M 96.841 54 L 131.159 54 C 131.623 54 132 54.377 132 54.841 L 132 57.159 C 132 57.623 131.623 58 131.159 58 L 96.841 58 C 96.377 58 96 57.623 96 57.159 L 96 54.841 C 96 54.377 96.377 54 96.841 54 Z" style="stroke:none;fill:#EEECEC;stroke-miterlimit:10;"/><path d="M 96.841 104 L 131.159 104 C 131.623 104 132 104.377 132 104.841 L 132 107.159 C 132 107.623 131.623 108 131.159 108 L 96.841 108 C 96.377 108 96 107.623 96 107.159 L 96 104.841 C 96 104.377 96.377 104 96.841 104 Z" style="stroke:none;fill:#EEECEC;stroke-miterlimit:10;"/><path d="M 96.841 151 L 131.159 151 C 131.623 151 132 151.377 132 151.841 L 132 154.159 C 132 154.623 131.623 155 131.159 155 L 96.841 155 C 96.377 155 96 154.623 96 154.159 L 96 151.841 C 96 151.377 96.377 151 96.841 151 Z" style="stroke:none;fill:#EEECEC;stroke-miterlimit:10;"/><path d="M 96.619 60 L 173.381 60 C 173.723 60 174 60.224 174 60.5 L 174 60.5 C 174 60.776 173.723 61 173.381 61 L 96.619 61 C 96.277 61 96 60.776 96 60.5 L 96 60.5 C 96 60.224 96.277 60 96.619 60 Z" style="stroke:none;fill:#EEECEC;stroke-miterlimit:10;"/><path d="M 96.619 110 L 173.381 110 C 173.723 110 174 110.224 174 110.5 L 174 110.5 C 174 110.776 173.723 111 173.381 111 L 96.619 111 C 96.277 111 96 110.776 96 110.5 L 96 110.5 C 96 110.224 96.277 110 96.619 110 Z" style="stroke:none;fill:#EEECEC;stroke-miterlimit:10;"/><path d="M 96.556 157 L 158.444 157 C 158.751 157 159 157.224 159 157.5 L 159 157.5 C 159 157.776 158.751 158 158.444 158 L 96.556 158 C 96.249 158 96 157.776 96 157.5 L 96 157.5 C 96 157.224 96.249 157 96.556 157 Z" style="stroke:none;fill:#EEECEC;stroke-miterlimit:10;"/><path d="M 96.506 163 L 147.494 163 C 147.773 163 148 163.224 148 163.5 L 148 163.5 C 148 163.776 147.773 164 147.494 164 L 96.506 164 C 96.227 164 96 163.776 96 163.5 L 96 163.5 C 96 163.224 96.227 163 96.506 163 Z" style="stroke:none;fill:#EEECEC;stroke-miterlimit:10;"/><path d="M 96.486 166 L 143.514 166 C 143.782 166 144 166.218 144 166.486 L 144 166.514 C 144 166.782 143.782 167 143.514 167 L 96.486 167 C 96.218 167 96 166.782 96 166.514 L 96 166.486 C 96 166.218 96.218 166 96.486 166 Z" style="stroke:none;fill:#EEECEC;stroke-miterlimit:10;"/><path d="M 96.539 160 L 154.461 160 C 154.759 160 155 160.224 155 160.5 L 155 160.5 C 155 160.776 154.759 161 154.461 161 L 96.539 161 C 96.241 161 96 160.776 96 160.5 L 96 160.5 C 96 160.224 96.241 160 96.539 160 Z" style="stroke:none;fill:#EEECEC;stroke-miterlimit:10;"/><path d="M 96.565 63 L 160.435 63 C 160.747 63 161 63.224 161 63.5 L 161 63.5 C 161 63.776 160.747 64 160.435 64 L 96.565 64 C 96.253 64 96 63.776 96 63.5 L 96 63.5 C 96 63.224 96.253 63 96.565 63 Z" style="stroke:none;fill:#EEECEC;stroke-miterlimit:10;"/><path d="M 96.565 113 L 160.435 113 C 160.747 113 161 113.224 161 113.5 L 161 113.5 C 161 113.776 160.747 114 160.435 114 L 96.565 114 C 96.253 114 96 113.776 96 113.5 L 96 113.5 C 96 113.224 96.253 113 96.565 113 Z" style="stroke:none;fill:#EEECEC;stroke-miterlimit:10;"/><path d="M 96.565 116 L 160.435 116 C 160.747 116 161 116.224 161 116.5 L 161 116.5 C 161 116.776 160.747 117 160.435 117 L 96.565 117 C 96.253 117 96 116.776 96 116.5 L 96 116.5 C 96 116.224 96.253 116 96.565 116 Z" style="stroke:none;fill:#EEECEC;stroke-miterlimit:10;"/><path d="M 96.539 119 L 154.461 119 C 154.759 119 155 119.224 155 119.5 L 155 119.5 C 155 119.776 154.759 120 154.461 120 L 96.539 120 C 96.241 120 96 119.776 96 119.5 L 96 119.5 C 96 119.224 96.241 119 96.539 119 Z" style="stroke:none;fill:#EEECEC;stroke-miterlimit:10;"/><path d="M 96.539 66 L 154.461 66 C 154.759 66 155 66.224 155 66.5 L 155 66.5 C 155 66.776 154.759 67 154.461 67 L 96.539 67 C 96.241 67 96 66.776 96 66.5 L 96 66.5 C 96 66.224 96.241 66 96.539 66 Z" style="stroke:none;fill:#EEECEC;stroke-miterlimit:10;"/><g><path d="M 279.902 15 L 290.098 15 C 290.596 15 291 15.404 291 15.902 L 291 16.098 C 291 16.596 290.596 17 290.098 17 L 279.902 17 C 279.404 17 279 16.596 279 16.098 L 279 15.902 C 279 15.404 279.404 15 279.902 15 Z" style="stroke:none;fill:#EBEBEB;stroke-miterlimit:10;"/><path d="M 279.902 12 L 290.098 12 C 290.596 12 291 12.404 291 12.902 L 291 13.098 C 291 13.596 290.596 14 290.098 14 L 279.902 14 C 279.404 14 279 13.596 279 13.098 L 279 12.902 C 279 12.404 279.404 12 279.902 12 Z" style="stroke:none;fill:#EBEBEB;stroke-miterlimit:10;"/><path d="M 279.902 9 L 290.098 9 C 290.596 9 291 9.404 291 9.902 L 291 10.098 C 291 10.596 290.596 11 290.098 11 L 279.902 11 C 279.404 11 279 10.596 279 10.098 L 279 9.902 C 279 9.404 279.404 9 279.902 9 Z" style="stroke:none;fill:#EBEBEB;stroke-miterlimit:10;"/></g><ellipse vector-effect="non-scaling-stroke" cx="50" cy="66.00000000000001" rx="16" ry="14" fill="rgb(235,235,235)"/><ellipse vector-effect="non-scaling-stroke" cx="50" cy="114" rx="16" ry="14" fill="rgb(235,235,235)"/><ellipse vector-effect="non-scaling-stroke" cx="50" cy="162" rx="16" ry="14" fill="rgb(235,235,235)"/></g></svg>