<?xml version="1.0" standalone="no"?><!-- Generator: Gravit.io --><svg xmlns="http://www.w3.org/2000/svg" xmlns:xlink="http://www.w3.org/1999/xlink" style="isolation:isolate" viewBox="0 0 200 300" width="200" height="300"><defs><clipPath id="_clipPath_MUULtsyq1IY0Fv4Z0CUc7v6CR6iJaS5h"><rect width="200" height="300"/></clipPath></defs><g clip-path="url(#_clipPath_MUULtsyq1IY0Fv4Z0CUc7v6CR6iJaS5h)"><rect x="-0.331" y="0" width="200.066" height="313" transform="matrix(1,0,0,1,0,0)" fill="rgb(255,255,255)"/><rect x="-0.066" y="0" width="200.066" height="34.376" transform="matrix(1,0,0,1,0,0)" fill="rgb(49,45,45)"/><g><path d="M 168.556 20.09 L 180.264 20.09 C 180.885 20.09 181.389 20.594 181.389 21.215 L 181.389 21.642 C 181.389 22.262 180.885 22.766 180.264 22.766 L 168.556 22.766 C 167.935 22.766 167.431 22.262 167.431 21.642 L 167.431 21.215 C 167.431 20.594 167.935 20.09 168.556 20.09 Z" style="stroke:none;fill:#EBEBEB;stroke-miterlimit:10;"/><path d="M 168.556 16.076 L 180.264 16.076 C 180.885 16.076 181.389 16.58 181.389 17.201 L 181.389 17.627 C 181.389 18.248 180.885 18.752 180.264 18.752 L 168.556 18.752 C 167.935 18.752 167.431 18.248 167.431 17.627 L 167.431 17.201 C 167.431 16.58 167.935 16.076 168.556 16.076 Z" style="stroke:none;fill:#EBEBEB;stroke-miterlimit:10;"/><path d="M 168.556 12.062 L 180.264 12.062 C 180.885 12.062 181.389 12.566 181.389 13.186 L 181.389 13.613 C 181.389 14.234 180.885 14.738 180.264 14.738 L 168.556 14.738 C 167.935 14.738 167.431 14.234 167.431 13.613 L 167.431 13.186 C 167.431 12.566 167.935 12.062 168.556 12.062 Z" style="stroke:none;fill:#EBEBEB;stroke-miterlimit:10;"/></g><path d="M 21.562 11.609 L 66.018 11.609 C 66.91 11.609 67.635 12.334 67.635 13.227 L 67.635 21.149 C 67.635 22.042 66.91 22.766 66.018 22.766 L 21.562 22.766 C 20.669 22.766 19.945 22.042 19.945 21.149 L 19.945 13.227 C 19.945 12.334 20.669 11.609 21.562 11.609 Z" style="stroke:none;fill:#CEC8C8;stroke-miterlimit:10;"/><path d="M 74.651 68.353 L 110.245 68.353 C 110.719 68.353 111.104 68.738 111.104 69.212 L 111.104 71.52 C 111.104 71.995 110.719 72.38 110.245 72.38 L 74.651 72.38 C 74.176 72.38 73.791 71.995 73.791 71.52 L 73.791 69.212 C 73.791 68.738 74.176 68.353 74.651 68.353 Z" style="stroke:none;fill:#EEECEC;stroke-miterlimit:10;"/><path d="M 74.651 167.015 L 110.245 167.015 C 110.719 167.015 111.104 167.4 111.104 167.874 L 111.104 170.183 C 111.104 170.657 110.719 171.042 110.245 171.042 L 74.651 171.042 C 74.176 171.042 73.791 170.657 73.791 170.183 L 73.791 167.874 C 73.791 167.4 74.176 167.015 74.651 167.015 Z" style="stroke:none;fill:#EEECEC;stroke-miterlimit:10;"/><path d="M 74.424 74.393 L 154.004 74.393 C 154.353 74.393 154.636 74.619 154.636 74.897 L 154.636 74.897 C 154.636 75.174 154.353 75.4 154.004 75.4 L 74.424 75.4 C 74.075 75.4 73.791 75.174 73.791 74.897 L 73.791 74.897 C 73.791 74.619 74.075 74.393 74.424 74.393 Z" style="stroke:none;fill:#EEECEC;stroke-miterlimit:10;"/><path d="M 74.424 173.056 L 154.004 173.056 C 154.353 173.056 154.636 173.281 154.636 173.559 L 154.636 173.559 C 154.636 173.837 154.353 174.062 154.004 174.062 L 74.424 174.062 C 74.075 174.062 73.791 173.837 73.791 173.559 L 73.791 173.559 C 73.791 173.281 74.075 173.056 74.424 173.056 Z" style="stroke:none;fill:#EEECEC;stroke-miterlimit:10;"/><path d="M 74.369 77.413 L 140.585 77.413 C 140.903 77.413 141.162 77.639 141.162 77.917 L 141.162 77.917 C 141.162 78.195 140.903 78.42 140.585 78.42 L 74.369 78.42 C 74.05 78.42 73.791 78.195 73.791 77.917 L 73.791 77.917 C 73.791 77.639 74.05 77.413 74.369 77.413 Z" style="stroke:none;fill:#EEECEC;stroke-miterlimit:10;"/><path d="M 74.369 176.076 L 140.585 176.076 C 140.903 176.076 141.162 176.301 141.162 176.579 L 141.162 176.579 C 141.162 176.857 140.903 177.083 140.585 177.083 L 74.369 177.083 C 74.05 177.083 73.791 176.857 73.791 176.579 L 73.791 176.579 C 73.791 176.301 74.05 176.076 74.369 176.076 Z" style="stroke:none;fill:#EEECEC;stroke-miterlimit:10;"/><path d="M 74.369 179.096 L 140.585 179.096 C 140.903 179.096 141.162 179.322 141.162 179.6 L 141.162 179.6 C 141.162 179.877 140.903 180.103 140.585 180.103 L 74.369 180.103 C 74.05 180.103 73.791 179.877 73.791 179.6 L 73.791 179.6 C 73.791 179.322 74.05 179.096 74.369 179.096 Z" style="stroke:none;fill:#EEECEC;stroke-miterlimit:10;"/><path d="M 74.341 182.116 L 134.393 182.116 C 134.697 182.116 134.943 182.342 134.943 182.62 L 134.943 182.62 C 134.943 182.898 134.697 183.123 134.393 183.123 L 74.341 183.123 C 74.038 183.123 73.791 182.898 73.791 182.62 L 73.791 182.62 C 73.791 182.342 74.038 182.116 74.341 182.116 Z" style="stroke:none;fill:#EEECEC;stroke-miterlimit:10;"/><path d="M 74.341 80.434 L 134.393 80.434 C 134.697 80.434 134.943 80.659 134.943 80.937 L 134.943 80.937 C 134.943 81.215 134.697 81.441 134.393 81.441 L 74.341 81.441 C 74.038 81.441 73.791 81.215 73.791 80.937 L 73.791 80.937 C 73.791 80.659 74.038 80.434 74.341 80.434 Z" style="stroke:none;fill:#EEECEC;stroke-miterlimit:10;"/><ellipse vector-effect="non-scaling-stroke" cx="40.36049425974488" cy="80.43374355149474" rx="16.583548848253194" ry="14.094629871340658" fill="rgb(235,235,235)"/><ellipse vector-effect="non-scaling-stroke" cx="40.36049425974488" cy="177.08263409783072" rx="16.5835488482532" ry="14.094629871340658" fill="rgb(235,235,235)"/><path d="M 74.651 119.975 L 110.245 119.975 C 110.719 119.975 111.104 120.36 111.104 120.834 L 111.104 123.142 C 111.104 123.617 110.719 124.002 110.245 124.002 L 74.651 124.002 C 74.176 124.002 73.791 123.617 73.791 123.142 L 73.791 120.834 C 73.791 120.36 74.176 119.975 74.651 119.975 Z" style="stroke:none;fill:#EEECEC;stroke-miterlimit:10;"/><path d="M 74.424 126.015 L 154.004 126.015 C 154.353 126.015 154.636 126.241 154.636 126.519 L 154.636 126.519 C 154.636 126.796 154.353 127.022 154.004 127.022 L 74.424 127.022 C 74.075 127.022 73.791 126.796 73.791 126.519 L 73.791 126.519 C 73.791 126.241 74.075 126.015 74.424 126.015 Z" style="stroke:none;fill:#EEECEC;stroke-miterlimit:10;"/><path d="M 74.369 129.035 L 140.585 129.035 C 140.903 129.035 141.162 129.261 141.162 129.539 L 141.162 129.539 C 141.162 129.817 140.903 130.042 140.585 130.042 L 74.369 130.042 C 74.05 130.042 73.791 129.817 73.791 129.539 L 73.791 129.539 C 73.791 129.261 74.05 129.035 74.369 129.035 Z" style="stroke:none;fill:#EEECEC;stroke-miterlimit:10;"/><path d="M 74.369 132.056 L 140.585 132.056 C 140.903 132.056 141.162 132.281 141.162 132.559 L 141.162 132.559 C 141.162 132.837 140.903 133.062 140.585 133.062 L 74.369 133.062 C 74.05 133.062 73.791 132.837 73.791 132.559 L 73.791 132.559 C 73.791 132.281 74.05 132.056 74.369 132.056 Z" style="stroke:none;fill:#EEECEC;stroke-miterlimit:10;"/><path d="M 74.341 135.076 L 134.393 135.076 C 134.697 135.076 134.943 135.302 134.943 135.579 L 134.943 135.579 C 134.943 135.857 134.697 136.083 134.393 136.083 L 74.341 136.083 C 74.038 136.083 73.791 135.857 73.791 135.579 L 73.791 135.579 C 73.791 135.302 74.038 135.076 74.341 135.076 Z" style="stroke:none;fill:#EEECEC;stroke-miterlimit:10;"/><ellipse vector-effect="non-scaling-stroke" cx="40.36049425974488" cy="130.04217167008503" rx="16.5835488482532" ry="14.094629871340658" fill="rgb(235,235,235)"/><path d="M 74.651 215.339 L 110.245 215.339 C 110.719 215.339 111.104 215.725 111.104 216.199 L 111.104 218.507 C 111.104 218.981 110.719 219.367 110.245 219.367 L 74.651 219.367 C 74.176 219.367 73.791 218.981 73.791 218.507 L 73.791 216.199 C 73.791 215.725 74.176 215.339 74.651 215.339 Z" style="stroke:none;fill:#EEECEC;stroke-miterlimit:10;"/><path d="M 68.532 272.638 L 105.871 272.638 C 106.366 272.638 106.768 273.04 106.768 273.535 L 106.768 275.922 C 106.768 276.416 106.366 276.818 105.871 276.818 L 68.532 276.818 C 68.037 276.818 67.635 276.416 67.635 275.922 L 67.635 273.535 C 67.635 273.04 68.037 272.638 68.532 272.638 Z" style="stroke:none;fill:#EEECEC;stroke-miterlimit:10;"/><path d="M 74.424 221.38 L 154.004 221.38 C 154.353 221.38 154.636 221.606 154.636 221.883 L 154.636 221.883 C 154.636 222.161 154.353 222.387 154.004 222.387 L 74.424 222.387 C 74.075 222.387 73.791 222.161 73.791 221.883 L 73.791 221.883 C 73.791 221.606 74.075 221.38 74.424 221.38 Z" style="stroke:none;fill:#EEECEC;stroke-miterlimit:10;"/><path d="M 68.228 278.908 L 135.525 278.908 C 135.852 278.908 136.118 279.142 136.118 279.431 L 136.118 279.431 C 136.118 279.719 135.852 279.953 135.525 279.953 L 68.228 279.953 C 67.901 279.953 67.635 279.719 67.635 279.431 L 67.635 279.431 C 67.635 279.142 67.901 278.908 68.228 278.908 Z" style="stroke:none;fill:#EEECEC;stroke-miterlimit:10;"/><path d="M 68.174 285.178 L 123.622 285.178 C 123.919 285.178 124.16 285.412 124.16 285.701 L 124.16 285.701 C 124.16 285.989 123.919 286.223 123.622 286.223 L 68.174 286.223 C 67.876 286.223 67.635 285.989 67.635 285.701 L 67.635 285.701 C 67.635 285.412 67.876 285.178 68.174 285.178 Z" style="stroke:none;fill:#EEECEC;stroke-miterlimit:10;"/><path d="M 68.153 288.313 L 119.295 288.313 C 119.58 288.313 119.812 288.545 119.812 288.831 L 119.812 288.841 C 119.812 289.126 119.58 289.358 119.295 289.358 L 68.153 289.358 C 67.867 289.358 67.635 289.126 67.635 288.841 L 67.635 288.831 C 67.635 288.545 67.867 288.313 68.153 288.313 Z" style="stroke:none;fill:#EEECEC;stroke-miterlimit:10;"/><path d="M 68.209 282.043 L 131.196 282.043 C 131.513 282.043 131.77 282.277 131.77 282.566 L 131.77 282.566 C 131.77 282.854 131.513 283.088 131.196 283.088 L 68.209 283.088 C 67.892 283.088 67.635 282.854 67.635 282.566 L 67.635 282.566 C 67.635 282.277 67.892 282.043 68.209 282.043 Z" style="stroke:none;fill:#EEECEC;stroke-miterlimit:10;"/><path d="M 74.369 224.4 L 140.585 224.4 C 140.903 224.4 141.162 224.626 141.162 224.904 L 141.162 224.904 C 141.162 225.182 140.903 225.407 140.585 225.407 L 74.369 225.407 C 74.05 225.407 73.791 225.182 73.791 224.904 L 73.791 224.904 C 73.791 224.626 74.05 224.4 74.369 224.4 Z" style="stroke:none;fill:#EEECEC;stroke-miterlimit:10;"/><path d="M 74.369 227.421 L 140.585 227.421 C 140.903 227.421 141.162 227.646 141.162 227.924 L 141.162 227.924 C 141.162 228.202 140.903 228.427 140.585 228.427 L 74.369 228.427 C 74.05 228.427 73.791 228.202 73.791 227.924 L 73.791 227.924 C 73.791 227.646 74.05 227.421 74.369 227.421 Z" style="stroke:none;fill:#EEECEC;stroke-miterlimit:10;"/><path d="M 74.341 230.441 L 134.393 230.441 C 134.697 230.441 134.943 230.666 134.943 230.944 L 134.943 230.944 C 134.943 231.222 134.697 231.448 134.393 231.448 L 74.341 231.448 C 74.038 231.448 73.791 231.222 73.791 230.944 L 73.791 230.944 C 73.791 230.666 74.038 230.441 74.341 230.441 Z" style="stroke:none;fill:#EEECEC;stroke-miterlimit:10;"/><ellipse vector-effect="non-scaling-stroke" cx="40.36049425974488" cy="225.40707937099862" rx="16.5835488482532" ry="14.094629871340658" fill="rgb(235,235,235)"/><ellipse vector-effect="non-scaling-stroke" cx="40.36049425974488" cy="273.7315246441667" rx="16.5835488482532" ry="14.094629871340658" fill="rgb(235,235,235)"/></g></svg>