<?xml version="1.0" standalone="no"?><!-- Generator: Gravit.io --><svg xmlns="http://www.w3.org/2000/svg" xmlns:xlink="http://www.w3.org/1999/xlink" style="isolation:isolate" viewBox="0 0 1366 3150" width="1366" height="3150"><defs><clipPath id="_clipPath_PgeqkxuwQpyhaK2PDuXAijY3i3omGwBw"><rect width="1366" height="3150"/></clipPath></defs><g clip-path="url(#_clipPath_PgeqkxuwQpyhaK2PDuXAijY3i3omGwBw)"><rect x="-32" y="-14" width="1456" height="3218" transform="matrix(1,0,0,1,0,0)" fill="rgb(247,249,253)"/><path d="M -88.435 593.997 L 901.92 216.687 C 954.415 196.687 1013.273 223.069 1033.273 275.565 L 1221.107 768.585 C 1241.107 821.081 1214.724 879.939 1162.228 899.939 L 171.874 1277.249 C 119.378 1297.249 60.521 1270.867 40.52 1218.371 L -147.313 725.351 C -167.313 672.855 -140.931 613.997 -88.435 593.997 Z" style="stroke:none;fill:#FFFFFF;stroke-miterlimit:10;"/><defs><filter id="oCyjrjTTnObxmF4JHSt2QnI6hT37wD38" x="-200%" y="-200%" width="400%" height="400%" filterUnits="objectBoundingBox" color-interpolation-filters="sRGB"><feOffset xmlns="http://www.w3.org/2000/svg" in="SourceGraphic" dx="300" dy="200"/><feGaussianBlur xmlns="http://www.w3.org/2000/svg" stdDeviation="42.93609062839028" result="pf_100_offsetBlur"/><feComposite xmlns="http://www.w3.org/2000/svg" in="SourceGraphic" in2="pf_100_offsetBlur" result="pf_100_inverse" operator="out"/><feFlood xmlns="http://www.w3.org/2000/svg" flood-color="#FF52BF" flood-opacity="0.4" result="pf_100_color"/><feComposite xmlns="http://www.w3.org/2000/svg" in="pf_100_color" in2="pf_100_inverse" operator="in" result="pf_100_shadow"/><feComposite xmlns="http://www.w3.org/2000/svg" in="pf_100_shadow" in2="SourceGraphic" operator="over"/></filter></defs><g filter="url(#oCyjrjTTnObxmF4JHSt2QnI6hT37wD38)"><path d="M 750.496 -64.26 L 1554.817 -683.044 C 1615.926 -730.057 1703.706 -718.612 1750.718 -657.504 L 2288.407 41.406 C 2335.42 102.515 2323.975 190.296 2262.867 237.308 L 1458.546 856.092 C 1397.438 903.104 1309.657 891.66 1262.645 830.551 L 724.956 131.641 C 677.943 70.532 689.388 -17.248 750.496 -64.26 Z" style="stroke:none;fill:#9A52FF;stroke-miterlimit:10;"/></g></g></svg>